<?xml version="1.0" encoding="UTF-8" standalone="no"?>
<!DOCTYPE svg PUBLIC "-//W3C//DTD SVG 1.1//EN" "http://www.w3.org/Graphics/SVG/1.1/DTD/svg11.dtd">
<svg width="100%" height="100%" viewBox="0 0 48 48" version="1.1" xmlns="http://www.w3.org/2000/svg" xmlns:xlink="http://www.w3.org/1999/xlink" xml:space="preserve" style="fill-rule:evenodd;clip-rule:evenodd;stroke-linejoin:round;stroke-miterlimit:1.41421;">
    <g>
        <path d="M35.799,14.001L35.931,14.003L36.064,14.008L36.195,14.013L36.327,14.021L36.458,14.03L36.588,14.041L36.719,14.054L36.848,14.068L36.978,14.083L37.107,14.101L37.235,14.12L37.363,14.14L37.49,14.162L37.617,14.186L37.744,14.211L37.87,14.238L37.995,14.266L38.12,14.296L38.244,14.327L38.367,14.36L38.49,14.394L38.613,14.43L38.734,14.467L38.855,14.506L38.976,14.546L39.096,14.588L39.215,14.631L39.333,14.675L39.451,14.721L39.568,14.768L39.684,14.817L39.8,14.867L39.914,14.918L40.028,14.971L40.142,15.024L40.254,15.08L40.366,15.136L40.477,15.194L40.587,15.253L40.697,15.314L40.805,15.376L40.913,15.439L41.02,15.503L41.126,15.568L41.231,15.635L41.335,15.703L41.439,15.772L41.541,15.842L41.643,15.914L41.744,15.986L41.843,16.06L41.942,16.135L42.04,16.211L42.137,16.289L42.233,16.367L42.328,16.447L42.422,16.527L42.516,16.609L42.608,16.692L42.699,16.776L42.789,16.861L42.878,16.947L42.966,17.034L43.053,17.122L43.139,17.211L43.224,17.301L43.308,17.392L43.391,17.484L43.473,17.577L43.553,17.671L43.633,17.766L43.711,17.863L43.788,17.96L43.865,18.057L43.94,18.156L44.013,18.256L44.086,18.357L44.158,18.459L44.228,18.561L44.297,18.664L44.365,18.769L44.432,18.874L44.497,18.98L44.561,19.087L44.624,19.194L44.686,19.303L44.746,19.412L44.806,19.522L44.864,19.633L44.92,19.745L44.975,19.858L45.029,19.971L45.082,20.085L45.133,20.2L45.183,20.315L45.232,20.432L45.279,20.549L45.325,20.666L45.369,20.785L45.412,20.904L45.454,21.024L45.494,21.144L45.533,21.265L45.57,21.387L45.606,21.509L45.64,21.632L45.673,21.756L45.704,21.88L45.734,22.004L45.762,22.13L45.789,22.256L45.814,22.382L45.838,22.509L45.86,22.636L45.88,22.764L45.899,22.893L45.917,23.021L45.932,23.151L45.946,23.28L45.959,23.411L45.97,23.541L45.979,23.672L45.987,23.804L45.992,23.936L45.997,24.068L45.999,24.2L46,24.333L45.999,24.466L45.997,24.598L45.992,24.73L45.987,24.862L45.979,24.994L45.97,25.125L45.959,25.255L45.946,25.386L45.932,25.515L45.917,25.645L45.899,25.773L45.88,25.902L45.86,26.03L45.838,26.157L45.814,26.284L45.789,26.41L45.762,26.536L45.734,26.662L45.704,26.786L45.673,26.91L45.64,27.034L45.606,27.157L45.57,27.279L45.533,27.401L45.494,27.522L45.454,27.642L45.412,27.762L45.369,27.881L45.325,28L45.279,28.117L45.232,28.234L45.183,28.351L45.133,28.466L45.082,28.581L45.029,28.695L44.975,28.808L44.92,28.921L44.864,29.033L44.806,29.144L44.746,29.254L44.686,29.363L44.624,29.472L44.561,29.579L44.497,29.686L44.432,29.792L44.365,29.897L44.297,30.002L44.228,30.105L44.158,30.207L44.086,30.309L44.013,30.41L43.94,30.51L43.865,30.609L43.788,30.706L43.711,30.803L43.633,30.9L43.553,30.995L43.473,31.089L43.391,31.182L43.308,31.274L43.224,31.365L43.139,31.455L43.053,31.544L42.966,31.632L42.878,31.719L42.789,31.805L42.699,31.89L42.608,31.974L42.516,32.057L42.422,32.139L42.328,32.219L42.233,32.299L42.137,32.377L42.04,32.455L41.942,32.531L41.843,32.606L41.744,32.68L41.643,32.752L41.541,32.824L41.439,32.894L41.335,32.963L41.231,33.031L41.126,33.098L41.02,33.163L40.913,33.227L40.805,33.29L40.697,33.352L40.587,33.413L40.477,33.472L40.366,33.53L40.254,33.586L40.142,33.642L40.028,33.695L39.914,33.748L39.8,33.799L39.684,33.849L39.568,33.898L39.451,33.945L39.333,33.991L39.215,34.035L39.096,34.078L38.976,34.12L38.855,34.16L38.734,34.199L38.613,34.236L38.49,34.272L38.367,34.306L38.244,34.339L38.12,34.37L37.995,34.4L37.87,34.428L37.744,34.455L37.617,34.48L37.49,34.504L37.363,34.526L37.235,34.546L37.107,34.565L36.978,34.583L36.848,34.598L36.719,34.612L36.588,34.625L36.458,34.636L36.327,34.645L36.195,34.653L36.063,34.658L35.931,34.663L35.799,34.665L35.668,34.666L35.568,34.666L35.471,34.664L35.374,34.662L35.273,34.658L35.085,34.649L34.893,34.636L34.702,34.62L34.512,34.6L34.324,34.577L34.137,34.55L33.951,34.52L33.766,34.487L33.583,34.451L33.401,34.412L33.22,34.37L33.041,34.325L32.863,34.277L32.687,34.227L32.511,34.174L32.338,34.118L32.166,34.06L31.995,34L31.825,33.937L31.658,33.872L31.491,33.805L31.326,33.735L31.163,33.664L31.001,33.591L30.84,33.515L30.681,33.438L30.524,33.359L30.368,33.279L30.213,33.196L30.06,33.112L29.908,33.027L29.758,32.94L29.609,32.852L29.462,32.762L29.316,32.671L29.171,32.579L29.028,32.485L28.887,32.391L28.747,32.295L28.608,32.198L28.471,32.1L28.335,32.002L28.201,31.902L28.068,31.802L27.936,31.701L27.806,31.599L27.678,31.497L27.55,31.394L27.424,31.29L27.3,31.186L27.177,31.081L27.056,30.976L26.936,30.871L26.817,30.765L26.7,30.659L26.584,30.553L26.469,30.447L26.357,30.34L26.245,30.234L26.135,30.127L26.026,30.02L25.919,29.914L25.813,29.807L25.709,29.701L25.606,29.595L25.505,29.489L25.405,29.384L25.304,29.276L25.114,29.069L24.927,28.862L24.746,28.657L24.571,28.455L24.402,28.256L24.239,28.06L24.083,27.869L23.932,27.681L23.788,27.498L23.649,27.319L23.517,27.146L23.392,26.979L23.273,26.818L23.16,26.663L23.054,26.515L22.954,26.374L22.861,26.241L22.775,26.115L22.694,25.995L22.557,25.79L22.446,25.619L22.362,25.488L21.65,24.333L22.362,23.178L22.446,23.047L22.557,22.876L22.694,22.671L22.775,22.551L22.861,22.425L22.954,22.292L23.054,22.151L23.16,22.003L23.273,21.848L23.392,21.687L23.517,21.52L23.649,21.347L23.788,21.168L23.932,20.985L24.083,20.797L24.239,20.606L24.402,20.41L24.571,20.211L24.746,20.009L24.927,19.804L25.114,19.597L25.304,19.39L25.405,19.282L25.505,19.177L25.606,19.071L25.709,18.965L25.813,18.859L25.919,18.752L26.026,18.646L26.135,18.539L26.245,18.432L26.357,18.326L26.469,18.219L26.584,18.113L26.7,18.007L26.817,17.901L26.936,17.795L27.056,17.69L27.177,17.585L27.3,17.48L27.424,17.376L27.55,17.272L27.678,17.169L27.806,17.067L27.936,16.965L28.068,16.864L28.201,16.764L28.335,16.664L28.471,16.566L28.608,16.468L28.747,16.371L28.887,16.275L29.028,16.181L29.171,16.087L29.316,15.995L29.462,15.904L29.609,15.814L29.758,15.726L29.908,15.639L30.06,15.554L30.213,15.47L30.368,15.387L30.524,15.307L30.681,15.228L30.84,15.151L31.001,15.075L31.163,15.002L31.326,14.931L31.491,14.861L31.658,14.794L31.825,14.729L31.995,14.666L32.166,14.606L32.338,14.548L32.511,14.492L32.687,14.439L32.863,14.389L33.041,14.341L33.22,14.296L33.401,14.254L33.583,14.215L33.766,14.179L33.951,14.146L34.137,14.116L34.324,14.089L34.512,14.066L34.702,14.046L34.893,14.03L35.085,14.017L35.273,14.008L35.374,14.004L35.471,14.002L35.568,14L35.668,14L35.799,14.001ZM35.607,18L35.549,18.001L35.491,18.003L35.437,18.004L35.316,18.01L35.199,18.018L35.083,18.028L34.967,18.04L34.852,18.055L34.736,18.071L34.621,18.09L34.505,18.11L34.39,18.133L34.275,18.158L34.16,18.185L34.045,18.213L33.93,18.244L33.815,18.277L33.7,18.312L33.586,18.348L33.472,18.387L33.357,18.427L33.243,18.47L33.129,18.514L33.015,18.56L32.902,18.607L32.788,18.657L32.675,18.708L32.562,18.761L32.45,18.816L32.337,18.872L32.225,18.93L32.114,18.989L32.002,19.05L31.891,19.113L31.781,19.177L31.67,19.242L31.561,19.309L31.451,19.377L31.342,19.447L31.234,19.518L31.126,19.59L31.019,19.663L30.912,19.738L30.806,19.813L30.7,19.89L30.595,19.968L30.491,20.046L30.388,20.126L30.285,20.206L30.182,20.288L30.081,20.37L29.98,20.453L29.88,20.537L29.781,20.621L29.683,20.706L29.585,20.792L29.489,20.878L29.393,20.965L29.298,21.052L29.204,21.139L29.111,21.227L29.018,21.315L28.927,21.403L28.837,21.492L28.747,21.581L28.659,21.67L28.572,21.759L28.486,21.847L28.4,21.936L28.316,22.025L28.235,22.112L28.07,22.291L27.912,22.466L27.758,22.641L27.609,22.813L27.465,22.983L27.326,23.15L27.191,23.314L27.062,23.475L26.939,23.632L26.82,23.785L26.707,23.933L26.6,24.076L26.498,24.214L26.411,24.333L26.498,24.452L26.6,24.59L26.707,24.733L26.82,24.881L26.939,25.034L27.062,25.191L27.191,25.352L27.326,25.516L27.465,25.683L27.609,25.853L27.758,26.025L27.912,26.2L28.07,26.375L28.235,26.554L28.316,26.641L28.4,26.73L28.486,26.819L28.572,26.907L28.659,26.996L28.747,27.085L28.837,27.174L28.927,27.263L29.018,27.351L29.111,27.439L29.204,27.527L29.298,27.614L29.393,27.701L29.489,27.788L29.585,27.874L29.683,27.96L29.781,28.045L29.88,28.129L29.98,28.213L30.081,28.296L30.182,28.378L30.285,28.46L30.388,28.54L30.491,28.62L30.595,28.698L30.7,28.776L30.806,28.853L30.912,28.928L31.019,29.003L31.126,29.076L31.234,29.148L31.342,29.219L31.451,29.289L31.561,29.357L31.67,29.424L31.781,29.489L31.891,29.553L32.002,29.616L32.114,29.677L32.225,29.736L32.337,29.794L32.45,29.85L32.562,29.905L32.675,29.958L32.788,30.009L32.902,30.059L33.015,30.106L33.129,30.152L33.243,30.196L33.357,30.239L33.472,30.279L33.586,30.318L33.7,30.354L33.815,30.389L33.93,30.422L34.045,30.453L34.16,30.481L34.275,30.508L34.39,30.533L34.505,30.556L34.621,30.576L34.736,30.595L34.852,30.611L34.967,30.626L35.083,30.638L35.199,30.648L35.316,30.656L35.437,30.662L35.491,30.663L35.549,30.665L35.607,30.666L35.664,30.666L35.748,30.665L35.829,30.664L35.91,30.661L35.991,30.658L36.072,30.653L36.152,30.647L36.232,30.641L36.311,30.633L36.391,30.624L36.47,30.615L36.548,30.604L36.627,30.593L36.705,30.58L36.782,30.567L36.86,30.552L36.937,30.537L37.013,30.521L37.09,30.503L37.166,30.485L37.241,30.466L37.317,30.446L37.392,30.425L37.466,30.404L37.54,30.381L37.614,30.357L37.688,30.333L37.761,30.307L37.833,30.281L37.906,30.254L37.978,30.226L38.049,30.197L38.12,30.168L38.191,30.137L38.261,30.106L38.331,30.074L38.4,30.04L38.469,30.007L38.538,29.972L38.606,29.936L38.673,29.9L38.74,29.863L38.807,29.825L38.873,29.787L38.939,29.747L39.004,29.707L39.068,29.666L39.133,29.624L39.196,29.582L39.259,29.538L39.322,29.494L39.384,29.45L39.445,29.404L39.506,29.358L39.567,29.311L39.626,29.263L39.686,29.215L39.744,29.166L39.802,29.116L39.86,29.066L39.917,29.015L39.973,28.963L40.028,28.911L40.083,28.858L40.138,28.804L40.192,28.749L40.245,28.694L40.297,28.639L40.349,28.583L40.4,28.526L40.45,28.468L40.5,28.41L40.549,28.352L40.597,28.292L40.645,28.233L40.692,28.172L40.738,28.111L40.784,28.05L40.828,27.988L40.872,27.925L40.916,27.862L40.958,27.799L41,27.735L41.041,27.67L41.081,27.605L41.121,27.539L41.159,27.473L41.197,27.406L41.234,27.339L41.271,27.272L41.306,27.204L41.341,27.135L41.375,27.066L41.408,26.997L41.44,26.927L41.471,26.857L41.502,26.786L41.531,26.715L41.56,26.644L41.588,26.572L41.615,26.5L41.641,26.427L41.667,26.354L41.691,26.281L41.715,26.207L41.738,26.133L41.759,26.058L41.78,25.983L41.8,25.908L41.819,25.832L41.837,25.756L41.855,25.68L41.871,25.603L41.886,25.526L41.901,25.449L41.914,25.371L41.927,25.293L41.938,25.215L41.949,25.136L41.958,25.057L41.967,24.978L41.975,24.899L41.981,24.819L41.987,24.739L41.992,24.658L41.995,24.577L41.998,24.496L41.999,24.415L42,24.333L41.999,24.251L41.998,24.17L41.995,24.089L41.992,24.008L41.987,23.927L41.981,23.847L41.975,23.767L41.967,23.688L41.958,23.609L41.949,23.53L41.938,23.451L41.927,23.373L41.914,23.295L41.901,23.217L41.886,23.14L41.871,23.063L41.855,22.986L41.837,22.91L41.819,22.834L41.8,22.758L41.78,22.683L41.759,22.608L41.738,22.533L41.715,22.459L41.691,22.385L41.667,22.312L41.641,22.239L41.615,22.166L41.588,22.094L41.56,22.022L41.531,21.951L41.502,21.88L41.471,21.809L41.44,21.739L41.408,21.669L41.375,21.6L41.341,21.531L41.306,21.462L41.271,21.394L41.234,21.327L41.197,21.26L41.159,21.193L41.121,21.127L41.081,21.061L41.041,20.996L41,20.931L40.958,20.867L40.916,20.804L40.872,20.741L40.828,20.678L40.784,20.616L40.738,20.555L40.692,20.494L40.645,20.433L40.597,20.374L40.549,20.314L40.5,20.256L40.45,20.198L40.4,20.14L40.349,20.083L40.297,20.027L40.245,19.972L40.192,19.917L40.138,19.862L40.083,19.808L40.028,19.755L39.973,19.703L39.917,19.651L39.86,19.6L39.802,19.55L39.744,19.5L39.686,19.451L39.626,19.403L39.567,19.355L39.506,19.308L39.445,19.262L39.384,19.216L39.322,19.172L39.259,19.128L39.196,19.084L39.133,19.042L39.068,19L39.004,18.959L38.939,18.919L38.873,18.879L38.807,18.841L38.74,18.803L38.673,18.766L38.606,18.73L38.538,18.694L38.469,18.659L38.4,18.626L38.331,18.592L38.261,18.56L38.191,18.529L38.12,18.498L38.049,18.469L37.978,18.44L37.906,18.412L37.833,18.385L37.761,18.359L37.688,18.333L37.614,18.309L37.54,18.285L37.466,18.262L37.392,18.241L37.317,18.22L37.241,18.2L37.166,18.181L37.09,18.163L37.013,18.145L36.937,18.129L36.86,18.114L36.782,18.099L36.705,18.086L36.627,18.073L36.548,18.062L36.47,18.051L36.391,18.042L36.311,18.033L36.232,18.025L36.152,18.019L36.072,18.013L35.991,18.008L35.91,18.005L35.829,18.002L35.748,18.001L35.664,18L35.607,18Z" style="fill:white;"/>
        <path d="M12.432,14L12.531,14.002L12.629,14.004L12.732,14.008L12.923,14.017L13.118,14.029L13.311,14.046L13.503,14.066L13.694,14.089L13.884,14.115L14.073,14.145L14.26,14.178L14.445,14.214L14.63,14.253L14.813,14.295L14.994,14.339L15.174,14.387L15.353,14.437L15.53,14.49L15.706,14.545L15.88,14.603L16.053,14.664L16.224,14.726L16.394,14.791L16.562,14.858L16.729,14.928L16.894,14.999L17.057,15.073L17.219,15.148L17.38,15.225L17.539,15.304L17.696,15.385L17.852,15.467L18.006,15.551L18.159,15.637L18.31,15.724L18.46,15.813L18.608,15.902L18.755,15.994L18.9,16.086L19.044,16.18L19.186,16.275L19.326,16.371L19.466,16.468L19.603,16.566L19.739,16.665L19.874,16.764L20.007,16.865L20.139,16.966L20.269,17.068L20.398,17.171L20.525,17.275L20.651,17.378L20.775,17.483L20.898,17.588L21.019,17.693L21.139,17.799L21.257,17.905L21.374,18.011L21.489,18.118L21.603,18.225L21.716,18.332L21.827,18.439L21.936,18.545L22.044,18.652L22.15,18.759L22.256,18.866L22.359,18.973L22.461,19.079L22.562,19.185L22.661,19.291L22.759,19.397L22.855,19.502L22.951,19.609L23.134,19.814L23.313,20.02L23.486,20.223L23.652,20.423L23.813,20.619L23.967,20.811L24.116,21L24.258,21.184L24.394,21.362L24.523,21.536L24.647,21.704L24.764,21.866L24.874,22.021L24.978,22.17L25.076,22.311L25.167,22.445L25.251,22.571L25.331,22.692L25.464,22.898L25.572,23.069L25.654,23.202L26.34,24.35L25.638,25.488L25.554,25.619L25.443,25.79L25.306,25.996L25.225,26.115L25.139,26.241L25.046,26.374L24.946,26.515L24.84,26.663L24.727,26.818L24.608,26.979L24.483,27.146L24.351,27.319L24.212,27.498L24.068,27.681L23.917,27.869L23.761,28.06L23.598,28.256L23.429,28.455L23.254,28.657L23.073,28.862L22.886,29.07L22.696,29.277L22.595,29.384L22.495,29.489L22.394,29.595L22.291,29.701L22.187,29.807L22.081,29.914L21.974,30.02L21.865,30.127L21.755,30.234L21.643,30.34L21.53,30.447L21.416,30.553L21.3,30.659L21.183,30.765L21.064,30.871L20.944,30.976L20.823,31.081L20.7,31.186L20.575,31.29L20.449,31.394L20.322,31.497L20.194,31.599L20.063,31.701L19.932,31.802L19.799,31.902L19.665,32.002L19.529,32.1L19.392,32.198L19.253,32.295L19.113,32.391L18.971,32.485L18.828,32.579L18.684,32.671L18.538,32.762L18.391,32.852L18.242,32.94L18.092,33.027L17.94,33.112L17.787,33.196L17.632,33.279L17.476,33.359L17.318,33.438L17.159,33.515L16.999,33.591L16.837,33.664L16.673,33.735L16.508,33.805L16.342,33.872L16.174,33.937L16.005,34L15.834,34.06L15.661,34.118L15.488,34.174L15.313,34.227L15.136,34.277L14.958,34.325L14.779,34.37L14.598,34.412L14.416,34.451L14.233,34.487L14.048,34.52L13.862,34.55L13.675,34.577L13.487,34.6L13.297,34.62L13.106,34.636L12.915,34.649L12.726,34.658L12.625,34.662L12.528,34.664L12.431,34.666L12.331,34.666L12.2,34.665L12.068,34.663L11.936,34.658L11.804,34.653L11.672,34.645L11.541,34.636L11.411,34.625L11.28,34.612L11.151,34.598L11.021,34.583L10.893,34.565L10.764,34.546L10.636,34.526L10.509,34.504L10.382,34.48L10.256,34.455L10.13,34.428L10.004,34.4L9.88,34.37L9.756,34.339L9.632,34.306L9.509,34.272L9.387,34.236L9.265,34.199L9.144,34.16L9.024,34.12L8.904,34.078L8.785,34.035L8.666,33.991L8.549,33.945L8.432,33.898L8.315,33.849L8.2,33.799L8.085,33.748L7.971,33.695L7.858,33.641L7.745,33.586L7.633,33.53L7.523,33.472L7.412,33.413L7.303,33.352L7.194,33.29L7.087,33.227L6.98,33.163L6.874,33.098L6.769,33.031L6.664,32.963L6.561,32.894L6.459,32.824L6.357,32.752L6.256,32.679L6.156,32.606L6.058,32.531L5.96,32.454L5.863,32.377L5.767,32.299L5.671,32.219L5.577,32.139L5.484,32.057L5.392,31.974L5.301,31.89L5.211,31.805L5.122,31.719L5.034,31.632L4.947,31.544L4.861,31.455L4.776,31.365L4.692,31.274L4.609,31.182L4.527,31.089L4.447,30.995L4.367,30.899L4.289,30.803L4.212,30.706L4.135,30.608L4.06,30.51L3.987,30.41L3.914,30.309L3.842,30.207L3.772,30.105L3.703,30.002L3.635,29.897L3.568,29.792L3.503,29.686L3.439,29.579L3.376,29.472L3.314,29.363L3.253,29.254L3.194,29.143L3.136,29.033L3.08,28.921L3.025,28.808L2.971,28.695L2.918,28.581L2.867,28.466L2.817,28.351L2.768,28.234L2.721,28.117L2.675,28L2.631,27.881L2.588,27.762L2.546,27.642L2.506,27.522L2.467,27.401L2.43,27.279L2.394,27.157L2.36,27.034L2.327,26.91L2.296,26.786L2.266,26.662L2.238,26.536L2.211,26.41L2.186,26.284L2.162,26.157L2.14,26.03L2.12,25.902L2.101,25.773L2.083,25.645L2.068,25.515L2.054,25.386L2.041,25.255L2.03,25.125L2.021,24.994L2.013,24.862L2.008,24.73L2.003,24.598L2.001,24.466L2,24.333L2.001,24.2L2.003,24.068L2.008,23.936L2.013,23.804L2.021,23.672L2.03,23.541L2.041,23.411L2.054,23.28L2.068,23.151L2.083,23.021L2.101,22.893L2.12,22.764L2.14,22.636L2.162,22.509L2.186,22.382L2.211,22.256L2.238,22.13L2.266,22.004L2.296,21.88L2.327,21.756L2.36,21.632L2.394,21.509L2.43,21.387L2.467,21.265L2.506,21.144L2.546,21.024L2.588,20.904L2.631,20.785L2.675,20.666L2.721,20.549L2.768,20.432L2.817,20.315L2.867,20.2L2.918,20.085L2.971,19.971L3.025,19.858L3.08,19.745L3.136,19.633L3.194,19.523L3.253,19.412L3.314,19.303L3.376,19.194L3.439,19.087L3.503,18.98L3.568,18.874L3.635,18.769L3.703,18.664L3.772,18.561L3.842,18.459L3.914,18.357L3.987,18.256L4.06,18.156L4.135,18.058L4.212,17.96L4.289,17.863L4.367,17.767L4.447,17.671L4.527,17.577L4.609,17.484L4.692,17.392L4.776,17.301L4.861,17.211L4.947,17.122L5.034,17.034L5.122,16.947L5.211,16.861L5.301,16.776L5.392,16.692L5.484,16.609L5.577,16.527L5.671,16.447L5.767,16.367L5.863,16.289L5.96,16.212L6.058,16.135L6.156,16.06L6.256,15.987L6.357,15.914L6.459,15.842L6.561,15.772L6.664,15.703L6.769,15.635L6.874,15.568L6.98,15.503L7.087,15.439L7.194,15.376L7.303,15.314L7.412,15.253L7.523,15.194L7.633,15.136L7.745,15.08L7.858,15.025L7.971,14.971L8.085,14.918L8.2,14.867L8.315,14.817L8.432,14.768L8.549,14.721L8.666,14.675L8.785,14.631L8.904,14.588L9.024,14.546L9.144,14.506L9.265,14.467L9.387,14.43L9.509,14.394L9.632,14.36L9.756,14.327L9.88,14.296L10.004,14.266L10.13,14.238L10.256,14.211L10.382,14.186L10.509,14.162L10.636,14.14L10.764,14.12L10.893,14.101L11.021,14.083L11.151,14.068L11.28,14.054L11.411,14.041L11.541,14.03L11.672,14.021L11.804,14.013L11.936,14.008L12.068,14.003L12.2,14.001L12.331,14L12.432,14ZM12.251,18.001L12.17,18.002L12.089,18.005L12.008,18.008L11.927,18.013L11.847,18.019L11.767,18.025L11.688,18.033L11.609,18.041L11.53,18.051L11.451,18.062L11.373,18.073L11.295,18.086L11.217,18.099L11.14,18.114L11.063,18.129L10.986,18.145L10.91,18.163L10.834,18.181L10.758,18.2L10.683,18.22L10.608,18.241L10.533,18.262L10.459,18.285L10.385,18.309L10.312,18.333L10.239,18.359L10.166,18.385L10.094,18.412L10.022,18.44L9.951,18.469L9.88,18.498L9.809,18.529L9.739,18.56L9.669,18.592L9.6,18.625L9.531,18.659L9.462,18.694L9.394,18.729L9.327,18.766L9.26,18.803L9.193,18.841L9.127,18.879L9.061,18.919L8.996,18.959L8.931,19L8.867,19.042L8.804,19.084L8.741,19.128L8.678,19.172L8.616,19.216L8.555,19.262L8.494,19.308L8.433,19.355L8.373,19.403L8.314,19.451L8.256,19.5L8.198,19.55L8.14,19.6L8.083,19.651L8.027,19.703L7.971,19.755L7.916,19.808L7.862,19.862L7.808,19.916L7.755,19.971L7.703,20.027L7.651,20.083L7.6,20.14L7.55,20.198L7.5,20.256L7.451,20.314L7.403,20.373L7.355,20.433L7.308,20.494L7.262,20.555L7.216,20.616L7.172,20.678L7.128,20.741L7.084,20.804L7.042,20.867L7,20.931L6.959,20.996L6.919,21.061L6.879,21.127L6.841,21.193L6.803,21.26L6.766,21.327L6.729,21.394L6.694,21.462L6.659,21.531L6.625,21.6L6.592,21.669L6.56,21.739L6.529,21.809L6.498,21.88L6.469,21.951L6.44,22.022L6.412,22.094L6.385,22.166L6.359,22.239L6.333,22.312L6.309,22.385L6.285,22.459L6.262,22.533L6.241,22.608L6.22,22.683L6.2,22.758L6.181,22.834L6.163,22.91L6.145,22.986L6.129,23.063L6.114,23.14L6.099,23.217L6.086,23.295L6.073,23.373L6.062,23.451L6.051,23.53L6.041,23.609L6.033,23.688L6.025,23.767L6.019,23.847L6.013,23.927L6.008,24.008L6.005,24.089L6.002,24.17L6.001,24.251L6,24.333L6.001,24.415L6.002,24.496L6.005,24.577L6.008,24.658L6.013,24.739L6.019,24.819L6.025,24.899L6.033,24.978L6.041,25.057L6.051,25.136L6.062,25.215L6.073,25.293L6.086,25.371L6.099,25.449L6.114,25.526L6.129,25.603L6.145,25.68L6.163,25.756L6.181,25.832L6.2,25.908L6.22,25.983L6.241,26.058L6.262,26.133L6.285,26.207L6.309,26.281L6.333,26.354L6.359,26.427L6.385,26.5L6.412,26.572L6.44,26.644L6.469,26.715L6.498,26.786L6.529,26.857L6.56,26.927L6.592,26.997L6.625,27.066L6.659,27.135L6.694,27.204L6.729,27.272L6.766,27.339L6.803,27.406L6.841,27.473L6.879,27.539L6.919,27.605L6.959,27.67L7,27.735L7.042,27.799L7.084,27.862L7.128,27.925L7.172,27.988L7.216,28.05L7.262,28.111L7.308,28.172L7.355,28.233L7.403,28.293L7.451,28.352L7.5,28.41L7.55,28.468L7.6,28.526L7.651,28.583L7.703,28.639L7.755,28.695L7.808,28.75L7.862,28.804L7.916,28.858L7.971,28.911L8.027,28.963L8.083,29.015L8.14,29.066L8.198,29.116L8.256,29.166L8.314,29.215L8.373,29.263L8.433,29.311L8.494,29.358L8.555,29.404L8.616,29.45L8.678,29.494L8.741,29.538L8.804,29.582L8.867,29.624L8.931,29.666L8.996,29.707L9.061,29.747L9.127,29.787L9.193,29.825L9.26,29.863L9.327,29.9L9.394,29.937L9.462,29.972L9.531,30.007L9.6,30.041L9.669,30.074L9.739,30.106L9.809,30.137L9.88,30.168L9.951,30.197L10.022,30.226L10.094,30.254L10.166,30.281L10.239,30.307L10.312,30.333L10.385,30.357L10.459,30.381L10.533,30.404L10.608,30.425L10.683,30.446L10.758,30.466L10.834,30.485L10.91,30.503L10.986,30.521L11.063,30.537L11.14,30.552L11.217,30.567L11.295,30.58L11.373,30.593L11.451,30.604L11.53,30.615L11.609,30.625L11.688,30.633L11.767,30.641L11.847,30.647L11.927,30.653L12.008,30.658L12.089,30.661L12.17,30.664L12.251,30.665L12.335,30.666L12.392,30.666L12.45,30.665L12.508,30.663L12.562,30.662L12.683,30.656L12.8,30.648L12.916,30.638L13.032,30.626L13.148,30.611L13.263,30.595L13.379,30.576L13.494,30.556L13.609,30.533L13.725,30.508L13.84,30.481L13.955,30.453L14.069,30.422L14.184,30.389L14.299,30.354L14.413,30.318L14.528,30.279L14.642,30.239L14.756,30.196L14.87,30.152L14.984,30.106L15.098,30.059L15.211,30.009L15.324,29.958L15.437,29.905L15.55,29.85L15.662,29.794L15.774,29.736L15.886,29.677L15.997,29.616L16.108,29.553L16.219,29.489L16.329,29.424L16.439,29.357L16.548,29.288L16.657,29.219L16.766,29.148L16.874,29.076L16.981,29.003L17.088,28.928L17.194,28.853L17.299,28.776L17.404,28.698L17.509,28.62L17.612,28.54L17.715,28.46L17.817,28.378L17.919,28.296L18.02,28.213L18.12,28.129L18.219,28.045L18.317,27.96L18.415,27.874L18.511,27.788L18.607,27.701L18.702,27.614L18.796,27.527L18.889,27.439L18.982,27.351L19.073,27.263L19.163,27.174L19.252,27.085L19.341,26.996L19.428,26.907L19.514,26.818L19.6,26.73L19.684,26.641L19.765,26.554L19.93,26.375L20.088,26.2L20.242,26.025L20.391,25.853L20.535,25.683L20.674,25.516L20.809,25.351L20.938,25.191L21.061,25.034L21.18,24.881L21.293,24.733L21.4,24.59L21.502,24.452L21.598,24.32L21.599,24.318L21.512,24.196L21.413,24.059L21.309,23.917L21.199,23.769L21.083,23.617L20.962,23.461L20.836,23.3L20.705,23.137L20.569,22.97L20.427,22.801L20.281,22.629L20.13,22.456L19.973,22.279L19.895,22.193L19.814,22.105L19.733,22.016L19.65,21.928L19.566,21.839L19.481,21.751L19.395,21.662L19.308,21.574L19.22,21.485L19.131,21.397L19.041,21.309L18.95,21.221L18.858,21.134L18.765,21.047L18.671,20.96L18.576,20.874L18.48,20.788L18.384,20.703L18.286,20.618L18.188,20.534L18.089,20.45L17.989,20.368L17.888,20.286L17.787,20.205L17.684,20.125L17.581,20.045L17.477,19.967L17.373,19.89L17.268,19.813L17.162,19.738L17.056,19.664L16.949,19.591L16.841,19.519L16.733,19.448L16.624,19.379L16.515,19.311L16.405,19.244L16.294,19.179L16.183,19.115L16.072,19.053L15.96,18.992L15.848,18.932L15.735,18.875L15.622,18.818L15.509,18.764L15.395,18.711L15.281,18.66L15.166,18.61L15.051,18.562L14.936,18.516L14.821,18.472L14.705,18.43L14.589,18.389L14.473,18.351L14.357,18.314L14.24,18.279L14.123,18.246L14.005,18.215L13.888,18.186L13.77,18.159L13.652,18.134L13.534,18.112L13.415,18.091L13.296,18.072L13.177,18.055L13.058,18.041L12.938,18.029L12.818,18.018L12.697,18.01L12.572,18.004L12.516,18.003L12.455,18.001L12.394,18L12.335,18L12.251,18.001Z" style="fill:white;"/>
        <rect x="10" y="23" width="6.003" height="2" style="fill:white;"/>
        <rect x="32" y="23" width="6.003" height="2" style="fill:white;"/>
        <rect x="34" y="21" width="2" height="6" style="fill:white;"/>
    </g>
</svg>
